<svg xmlns="http://www.w3.org/2000/svg" viewBox="0 0 18.88 18.88"><defs><style>.cls-1{fill:#fff;}.cls-2{fill:#74cee2;}</style></defs><title>Asset 2</title><g id="Layer_2" data-name="Layer 2"><g id="Layer_1-2" data-name="Layer 1"><path class="cls-1" d="M13.87,4.64V.57M9.44,4.64V.57M5,4.64V.57M18.3,4.64H.57V.57H18.3Z"/><path class="cls-2" d="M4.43,4.06H1.14V1.14H4.43Zm4.44,0H5.58V1.14H8.87Zm4.43,0H10V1.14H13.3Zm4.44,0h-3.3V1.14h3.3Zm.57,1.15h.56V0H0V5.21Z"/><path class="cls-1" d="M13.88,11.47V7.41m4.42,4.06H9.43V7.41H18.3Z"/><path class="cls-2" d="M14.45,8h3.28V10.9H14.45ZM10,8H13.3V10.9H10ZM18.3,12h.58V6.84h-10V12Z"/><path class="cls-1" d="M9.44,18.3V14.24m4.32,4.06H4.94V14.24h8.82Z"/><path class="cls-2" d="M8.87,17.73H5.51V14.81H8.87Zm4.32,0H10V14.81h3.18Zm.57,1.15h.57V13.67h-10v5.21Z"/><rect class="cls-1" x="0.57" y="7.41" width="4.52" height="4.06"/><path class="cls-2" d="M1.14,8H4.52V10.9H1.14Zm4,4.06h.57V6.84H0V12Z"/></g></g></svg>