<svg id="Layer_1" data-name="Layer 1" xmlns="http://www.w3.org/2000/svg" xmlns:xlink="http://www.w3.org/1999/xlink" viewBox="0 0 35.69 22.68"><defs><style>.cls-1{fill:none;}.cls-2{clip-path:url(#clip-path);}.cls-3{fill:#00accd;}.cls-4{fill:#fff;}</style><clipPath id="clip-path" transform="translate(-52.44 -26.99)"><rect class="cls-1" width="765.35" height="581.1"/></clipPath></defs><title>l_1</title><g class="cls-2"><path class="cls-3" d="M52.44,35.69a2.16,2.16,0,0,1,2.16-2.16H59V29.15A2.16,2.16,0,0,1,61.1,27l5.33,0a2.16,2.16,0,0,1,2.15,2.16v4.35H72V29.18A2.15,2.15,0,0,1,74.14,27H86a2.16,2.16,0,0,1,2.16,2.15V34.5A2.16,2.16,0,0,1,86,36.66H81.62V40H86a2.17,2.17,0,0,1,2.16,2.16v5.32A2.16,2.16,0,0,1,86,49.67H74.14A2.16,2.16,0,0,1,72,47.51V43.16H62.07v4.35a2.15,2.15,0,0,1-2.15,2.16H54.6a2.15,2.15,0,0,1-2.16-2.16V35.69Z" transform="translate(-52.44 -26.99)"/></g><path class="cls-4" d="M66.42,41H61.1V35.69h5.32Zm0-6.51H61.1V29.18h5.32Zm-6.5,13H54.6V42.19h5.32Zm0-6.5H54.6V35.69h5.32ZM86,34.5H80.65V29.18H86Zm0,13H80.65V42.19H86ZM79.47,41H74.15V35.69h5.32Zm0-6.5H74.15V29.18h5.32Zm0,13H74.15V42.19h5.32ZM73,41H67.64V35.69H73Z" transform="translate(-52.44 -26.99)"/></svg>